<svg version="1.1" id="Layer_1" xmlns="http://www.w3.org/2000/svg" xmlns:xlink="http://www.w3.org/1999/xlink" x="0px" y="0px"
	 width="100%" fill="#F3F3F3" viewBox="0 0 58 59" enable-background="new 0 0 58 59" xml:space="preserve">

<path fill="#F3F3F3" opacity="1.000000" stroke="none" 
	d="
M32.316437,33.434662 
	C33.393627,32.343380 34.289513,31.584822 35.006374,30.683826 
	C36.566967,28.722382 37.810043,28.085632 40.019615,30.272171 
	C42.239433,32.468849 42.268215,33.793629 39.894882,35.714493 
	C36.338581,38.592796 33.729385,44.620960 29.817913,44.396633 
	C26.454155,44.203712 23.499992,38.690800 20.150957,35.775837 
	C17.935524,33.847549 17.684700,32.636322 19.911171,30.327187 
	C22.495584,27.646818 23.456348,29.669159 25.388294,30.955139 
	C27.324926,32.244240 28.021002,37.407993 32.316437,33.434662 
z"/>
<path fill="#F5F5F5" opacity="1.000000" stroke="none" 
	d="
M30.010113,27.092270 
	C25.391363,26.440756 23.953794,23.749235 25.002998,19.938236 
	C25.803471,17.030699 28.187243,15.683733 31.200155,16.458218 
	C34.739254,17.367960 35.870155,19.966516 35.086720,23.362947 
	C34.538593,25.739248 32.779861,26.871529 30.010113,27.092270 
z"/>
</svg>