<svg width="20" height="20" viewBox="0 0 20 20" fill="none" xmlns="http://www.w3.org/2000/svg">
<g clip-path="url(#clip0_236_5813)">
<path d="M19.5833 10.8335C19.8136 10.8335 20 10.6471 20 10.4168V8.33343C20 7.41422 19.2525 6.6667 18.3333 6.6667H15.1969C15.0773 6.40165 14.9998 6.12516 14.9998 5.83335C14.9998 5.07891 15.4185 4.38147 16.0928 4.01322C16.1908 3.9595 16.2637 3.86837 16.2938 3.76051C16.3243 3.65309 16.3101 3.53754 16.2547 3.44027L15.2395 1.66693C15.0177 1.28036 14.6596 1.00406 14.2311 0.88933C13.8046 0.775381 13.3587 0.835227 12.977 1.05738L0.825805 8.13159C0.0371867 8.59059 -0.234189 9.61031 0.220317 10.4038L1.27015 12.239C1.3259 12.3366 1.41868 12.4075 1.52731 12.4355C1.63556 12.4636 1.75111 12.4469 1.84717 12.3891C2.18327 12.1864 2.54301 12.0835 2.91614 12.0835C3.8257 12.0835 4.62026 12.6827 4.89074 13.5496C4.621 14.3879 3.84289 15.0003 2.91614 15.0003C2.68582 15.0003 2.49945 15.1867 2.49945 15.417V17.5004C2.49945 18.4196 3.24694 19.1671 4.16618 19.1671H18.3333C19.2525 19.1671 20 18.4196 20 17.5004V15.417C20 15.1867 19.8137 15.0003 19.5833 15.0003C18.4346 15.0003 17.5 14.0656 17.5 12.9169C17.4999 11.7682 18.4346 10.8335 19.5833 10.8335ZM13.3966 1.77764C13.585 1.66775 13.8064 1.63724 14.0155 1.69424C14.2283 1.75119 14.4058 1.88874 14.516 2.0812L15.3352 3.51191C14.6056 4.05919 14.1665 4.91578 14.1665 5.83335C14.1665 6.11594 14.213 6.3961 14.2953 6.6667H4.9984L13.3966 1.77764ZM2.91611 11.2502C2.53484 11.2502 2.15436 11.3291 1.79669 11.4813L0.943817 9.99C0.715528 9.59202 0.85104 9.08138 1.24492 8.85188L2.52223 8.10831C2.51207 8.18268 2.49945 8.25636 2.49945 8.33347V10.4169C2.49945 10.6472 2.68582 10.8335 2.91614 10.8335C3.68281 10.8335 4.34674 11.2545 4.7085 11.873C4.20954 11.4804 3.58449 11.2502 2.91611 11.2502ZM16.6665 12.9169C16.6665 14.3838 17.755 15.6013 19.1666 15.8039V17.5004C19.1666 17.9597 18.7927 18.3337 18.3333 18.3337H8.33295V17.6045C8.33295 17.3742 8.14658 17.1878 7.91626 17.1878C7.68594 17.1878 7.49957 17.3742 7.49957 17.6045V18.3337H4.16614C3.70675 18.3337 3.3328 17.9597 3.3328 17.5004V15.8039C4.74437 15.6013 5.83288 14.3838 5.83288 12.9169C5.83288 11.45 4.74437 10.2325 3.3328 10.0299V8.33343C3.3328 7.87404 3.70675 7.50008 4.16614 7.50008H7.49957V8.43761C7.49957 8.66793 7.68594 8.85431 7.91626 8.85431C8.14658 8.85431 8.33295 8.66793 8.33295 8.43761V7.50008H18.3333C18.7927 7.50008 19.1666 7.87404 19.1666 8.33343V10.0299C17.755 10.2325 16.6665 11.45 16.6665 12.9169Z" fill="#2F5ACF"/>
<path d="M7.9162 10.521C7.68588 10.521 7.49951 10.7074 7.49951 10.9377V11.771C7.49951 12.0014 7.68588 12.1877 7.9162 12.1877C8.14652 12.1877 8.3329 12.0014 8.3329 11.771V10.9377C8.3329 10.7074 8.14652 10.521 7.9162 10.521Z" fill="#2F5ACF"/>
<path d="M7.9162 13.8544C7.68588 13.8544 7.49951 14.0408 7.49951 14.2711V15.1045C7.49951 15.3348 7.68588 15.5212 7.9162 15.5212C8.14652 15.5212 8.3329 15.3348 8.3329 15.1045V14.2711C8.3329 14.0408 8.14652 13.8544 7.9162 13.8544Z" fill="#2F5ACF"/>
<path d="M15.6663 9.25023C15.4828 9.11311 15.2211 9.14972 15.0832 9.33363L10.083 16.0005C9.94467 16.1844 9.98213 16.4457 10.1664 16.5836C10.2413 16.6398 10.3288 16.667 10.4159 16.667C10.5428 16.667 10.6677 16.6096 10.7495 16.5002L15.7497 9.83329C15.8881 9.64938 15.8506 9.38816 15.6663 9.25023Z" fill="#2F5ACF"/>
<path d="M11.2497 12.5002C11.9508 12.5002 12.4997 11.7682 12.4997 10.8335C12.4997 9.89883 11.9508 9.16678 11.2497 9.16678C10.5486 9.16678 9.99963 9.89883 9.99963 10.8335C9.99963 11.7682 10.5486 12.5002 11.2497 12.5002ZM11.2497 10.0002C11.4198 10.0002 11.6664 10.3249 11.6664 10.8335C11.6664 11.3422 11.4198 11.6669 11.2497 11.6669C11.0796 11.6669 10.833 11.3421 10.833 10.8335C10.833 10.3249 11.0796 10.0002 11.2497 10.0002Z" fill="#2F5ACF"/>
<path d="M14.5832 13.3336C13.8821 13.3336 13.3331 14.0656 13.3331 15.0003C13.3331 15.935 13.8821 16.6671 14.5832 16.6671C15.2843 16.6671 15.8332 15.935 15.8332 15.0003C15.8332 14.0656 15.2843 13.3336 14.5832 13.3336ZM14.5832 15.8337C14.4131 15.8337 14.1665 15.5089 14.1665 15.0003C14.1665 14.4917 14.4131 14.167 14.5832 14.167C14.7533 14.167 14.9999 14.4917 14.9999 15.0003C14.9999 15.5089 14.7533 15.8337 14.5832 15.8337Z" fill="#2F5ACF"/>
</g>
<defs>
<clipPath id="clip0_236_5813">
<rect width="20" height="20" fill="white"/>
</clipPath>
</defs>
</svg>
