<svg width="24" height="25" viewBox="0 0 24 25" fill="none" xmlns="http://www.w3.org/2000/svg">
<path d="M5.14322 22.3534C5.70806 21.7637 6.28912 21.1897 6.88574 20.6321C7.36166 20.1637 7.7079 19.8817 7.7079 19.8817L9.39125 16.3559C10.992 17.7675 13.0526 18.5465 15.1867 18.5469C20.0453 18.5469 24 14.5931 24 9.73265C24 4.87221 20.0453 0.918381 15.1867 0.918381C10.328 0.918381 6.37331 4.87221 6.37331 9.73265C6.37331 11.9526 7.20428 13.9761 8.5628 15.5287L5.03746 17.2122C5.03746 17.2122 4.75543 17.5585 4.28706 18.0344C3.83003 18.5217 3.21183 19.1627 2.56594 19.7771L0.813345 21.4871L0 22.2477L2.67044 24.9184L3.43091 24.1049C3.89928 23.6277 4.52125 22.9906 5.14322 22.3534ZM8.89141 9.73265C8.89141 6.26109 11.7155 3.43674 15.1867 3.43674C18.6579 3.43674 21.4819 6.26109 21.4819 9.73265C21.4819 13.2042 18.6579 16.0286 15.1867 16.0286C11.7155 16.0286 8.89141 13.2042 8.89141 9.73265Z" fill="white"/>
</svg>
